<svg width="78" height="12" viewBox="0 0 78 12" fill="none" xmlns="http://www.w3.org/2000/svg">
<path d="M5.74588 10.9408L3.54587 11.8408C3.04587 12.0408 2.44588 11.8408 2.24588 11.3408C2.14588 11.1408 2.14588 11.0408 2.14588 10.8408L2.34587 8.44082C2.34587 8.14082 2.24588 7.94082 2.14588 7.74082L0.545875 5.94082C0.245875 5.54082 0.245875 4.84082 0.645875 4.54082C0.845875 4.44082 0.945875 4.34082 1.14588 4.34082L3.44588 3.84082C3.74588 3.74082 3.94587 3.64082 4.04587 3.34082L5.24588 1.34082C5.54588 0.84082 6.14587 0.74082 6.64587 1.04082C6.74587 1.14082 6.94588 1.24082 6.94588 1.34082L8.14587 3.34082C8.24587 3.54082 8.54588 3.74082 8.74588 3.84082L11.1459 4.34082C11.6459 4.44082 12.0459 5.04082 11.8459 5.54082C11.8459 5.74082 11.7459 5.84082 11.6459 5.94082L10.1459 7.74082C9.94588 7.94082 9.84587 8.24082 9.94587 8.44082L10.1459 10.8408C10.1459 11.4408 9.74588 11.8408 9.24588 11.9408C9.04588 11.9408 8.94588 11.9408 8.74588 11.8408L6.54587 10.9408C6.24587 10.8408 6.04588 10.8408 5.74588 10.9408Z" fill="url(#paint0_linear_32_2812)"/>
<path d="M22.0623 10.9408L19.8623 11.8408C19.3623 12.0408 18.7623 11.8408 18.5623 11.3408C18.4623 11.1408 18.4623 11.0408 18.4623 10.8408L18.6623 8.44082C18.6623 8.14082 18.5623 7.94082 18.4623 7.74082L16.8623 5.94082C16.5623 5.54082 16.5623 4.84082 16.9623 4.54082C17.1623 4.44082 17.2623 4.34082 17.4623 4.34082L19.7623 3.84082C20.0623 3.74082 20.2623 3.64082 20.3623 3.34082L21.5623 1.34082C21.8623 0.84082 22.4623 0.74082 22.9623 1.04082C23.0623 1.14082 23.2623 1.24082 23.2623 1.34082L24.4623 3.34082C24.5623 3.54082 24.8623 3.74082 25.0623 3.84082L27.4623 4.34082C27.9623 4.44082 28.3623 5.04082 28.1623 5.54082C28.1623 5.74082 28.0623 5.84082 27.9623 5.94082L26.4623 7.74082C26.2623 7.94082 26.1623 8.24082 26.2623 8.44082L26.4623 10.8408C26.4623 11.4408 26.0623 11.8408 25.5623 11.9408C25.3623 11.9408 25.2623 11.9408 25.0623 11.8408L22.8623 10.9408C22.5623 10.8408 22.3623 10.8408 22.0623 10.9408Z" fill="url(#paint1_linear_32_2812)"/>
<path d="M38.3787 10.9408L36.1787 11.8408C35.6787 12.0408 35.0787 11.8408 34.8787 11.3408C34.7787 11.1408 34.7787 11.0408 34.7787 10.8408L34.9787 8.44082C34.9787 8.14082 34.8787 7.94082 34.7787 7.74082L33.1787 5.94082C32.8787 5.54082 32.8787 4.84082 33.2787 4.54082C33.4787 4.44082 33.5787 4.34082 33.7787 4.34082L36.0787 3.84082C36.3787 3.74082 36.5787 3.64082 36.6787 3.34082L37.8787 1.34082C38.1787 0.84082 38.7787 0.74082 39.2787 1.04082C39.3787 1.14082 39.5787 1.24082 39.5787 1.34082L40.7787 3.34082C40.8787 3.54082 41.1787 3.74082 41.3787 3.84082L43.7787 4.34082C44.2787 4.44082 44.6787 5.04082 44.4787 5.54082C44.4787 5.74082 44.3787 5.84082 44.2787 5.94082L42.7787 7.74082C42.5787 7.94082 42.4787 8.24082 42.5787 8.44082L42.7787 10.8408C42.7787 11.4408 42.3787 11.8408 41.8787 11.9408C41.6787 11.9408 41.5787 11.9408 41.3787 11.8408L39.1787 10.9408C38.8787 10.8408 38.6787 10.8408 38.3787 10.9408Z" fill="url(#paint2_linear_32_2812)"/>
<path d="M54.6951 10.9408L52.4951 11.8408C51.9951 12.0408 51.3951 11.8408 51.1951 11.3408C51.0951 11.1408 51.0951 11.0408 51.0951 10.8408L51.2951 8.44082C51.2951 8.14082 51.1951 7.94082 51.0951 7.74082L49.4951 5.94082C49.1951 5.54082 49.1951 4.84082 49.5951 4.54082C49.7951 4.44082 49.8951 4.34082 50.0951 4.34082L52.3951 3.84082C52.6951 3.74082 52.8951 3.64082 52.9951 3.34082L54.1951 1.34082C54.4951 0.84082 55.0951 0.74082 55.5951 1.04082C55.6951 1.14082 55.8951 1.24082 55.8951 1.34082L57.0951 3.34082C57.1951 3.54082 57.4951 3.74082 57.6951 3.84082L60.0951 4.34082C60.5951 4.44082 60.9951 5.04082 60.7951 5.54082C60.7951 5.74082 60.6951 5.84082 60.5951 5.94082L59.0951 7.74082C58.8951 7.94082 58.7951 8.24082 58.8951 8.44082L59.0951 10.8408C59.0951 11.4408 58.6951 11.8408 58.1951 11.9408C57.9951 11.9408 57.8951 11.9408 57.6951 11.8408L55.4951 10.9408C55.1951 10.8408 54.9951 10.8408 54.6951 10.9408Z" fill="url(#paint3_linear_32_2812)"/>
<path d="M71.0115 10.9408L68.8115 11.8408C68.3115 12.0408 67.7115 11.8408 67.5115 11.3408C67.4115 11.1408 67.4115 11.0408 67.4115 10.8408L67.6115 8.44082C67.6115 8.14082 67.5115 7.94082 67.4115 7.74082L65.8115 5.94082C65.5115 5.54082 65.5115 4.84082 65.9115 4.54082C66.1115 4.44082 66.2115 4.34082 66.4115 4.34082L68.7115 3.84082C69.0115 3.74082 69.2115 3.64082 69.3115 3.34082L70.5115 1.34082C70.8115 0.84082 71.4115 0.74082 71.9115 1.04082C72.0115 1.14082 72.2115 1.24082 72.2115 1.34082L73.4115 3.34082C73.5115 3.54082 73.8115 3.74082 74.0115 3.84082L76.4115 4.34082C76.9115 4.44082 77.3115 5.04082 77.1115 5.54082C77.1115 5.74082 77.0115 5.84082 76.9115 5.94082L75.4115 7.74082C75.2115 7.94082 75.1115 8.24082 75.2115 8.44082L75.4115 10.8408C75.4115 11.4408 75.0115 11.8408 74.5115 11.9408C74.3115 11.9408 74.2115 11.9408 74.0115 11.8408L71.8115 10.9408C71.5115 10.8408 71.3115 10.8408 71.0115 10.9408Z" fill="url(#paint4_linear_32_2812)"/>
<defs>
<linearGradient id="paint0_linear_32_2812" x1="6.69357" y1="-0.870233" x2="7.29123" y2="18.7395" gradientUnits="userSpaceOnUse">
<stop stop-color="#FD749B"/>
<stop offset="1" stop-color="#281AC8"/>
</linearGradient>
<linearGradient id="paint1_linear_32_2812" x1="23.01" y1="-0.870233" x2="23.6076" y2="18.7395" gradientUnits="userSpaceOnUse">
<stop stop-color="#FD749B"/>
<stop offset="1" stop-color="#281AC8"/>
</linearGradient>
<linearGradient id="paint2_linear_32_2812" x1="39.3264" y1="-0.870233" x2="39.924" y2="18.7395" gradientUnits="userSpaceOnUse">
<stop stop-color="#FD749B"/>
<stop offset="1" stop-color="#281AC8"/>
</linearGradient>
<linearGradient id="paint3_linear_32_2812" x1="55.6428" y1="-0.870233" x2="56.2405" y2="18.7395" gradientUnits="userSpaceOnUse">
<stop stop-color="#FD749B"/>
<stop offset="1" stop-color="#281AC8"/>
</linearGradient>
<linearGradient id="paint4_linear_32_2812" x1="71.9592" y1="-0.870233" x2="72.5569" y2="18.7395" gradientUnits="userSpaceOnUse">
<stop stop-color="#FD749B"/>
<stop offset="1" stop-color="#281AC8"/>
</linearGradient>
</defs>
</svg>
